<svg width="66" height="14" viewBox="0 0 66 14" fill="none" xmlns="http://www.w3.org/2000/svg">
<path fill-rule="evenodd" clip-rule="evenodd" d="M2.73197 13.0752L1.13831 13.0752L1.13831 4.78998L0.0731886 4.78998L0.0731886 3.25362L1.08975 3.25362L1.08975 2.95906C1.08975 1.96562 1.34435 1.21074 1.85384 0.695541C2.3636 0.181181 3.12502 -0.0764187 4.13836 -0.0764187L4.13836 1.55794L4.00019 1.55794C3.52799 1.55794 3.18833 1.67638 2.9796 1.91494C2.77087 2.15294 2.6673 2.55194 2.6673 3.11166L2.6673 3.25362L4.13836 3.25362L4.13836 4.78998L2.73197 4.78998L2.73197 13.0752ZM6.17094 12.651L7.79679 12.651L7.79679 3.03578L6.17094 3.03578L6.17094 12.651ZM6.17094 1.90822L7.79679 1.90822L7.79679 -0.0764185L6.17094 -0.0764186L6.17094 1.90822ZM10.6426 12.6493L10.6426 -0.0764184L12.3377 -0.0764183L12.3376 7.48638L15.7262 3.03354L17.7244 3.03494L14.2318 7.59782L18.3662 12.6493L16.167 12.651L12.3376 7.76554L12.3376 12.6493L10.6426 12.6493ZM19.5856 12.651L21.2114 12.651L21.2114 3.03578L19.5856 3.03578L19.5856 12.651ZM19.5856 1.90822L21.2114 1.90822L21.2114 -0.076418L19.5856 -0.076418L19.5856 1.90822ZM25.6817 12.651L24.0572 12.651L24.0572 3.05006L25.583 3.05006L25.583 4.15886C25.8457 3.73998 26.1534 3.42386 26.5048 3.21162C26.8577 2.99882 27.2614 2.89326 27.7156 2.89326L27.7156 4.70038C27.376 4.70038 27.0726 4.76142 26.8053 4.8835C26.5368 5.0053 26.3176 5.1747 26.1491 5.38918C25.8371 5.7851 25.6817 6.42518 25.6817 7.30998L25.6817 12.651ZM35.4583 7.80726C35.4583 6.6433 35.2968 5.7949 34.9724 5.26262C34.6494 4.73034 34.141 4.46462 33.4472 4.46462C32.7266 4.46462 32.1943 4.73202 31.8519 5.26738C31.508 5.80274 31.336 6.62622 31.336 7.73698L31.336 12.651L29.7482 12.651L29.7482 3.05034L31.2346 3.05034L31.2346 4.1765C31.5335 3.75706 31.8817 3.4387 32.2825 3.22086C32.6818 3.00246 33.1303 2.89326 33.6253 2.89326C34.3012 2.89326 34.8619 3.02402 35.3059 3.28582C35.7513 3.54762 36.1221 3.96958 36.4212 4.55198C36.7024 3.99898 37.082 3.58402 37.562 3.30822C38.0406 3.03158 38.6177 2.89326 39.2936 2.89326C40.3399 2.89326 41.1788 3.24634 41.8101 3.9539C42.4406 4.6609 42.7564 5.60506 42.7564 6.7861L42.7564 12.651L41.0742 12.651L41.0742 7.05658C41.0742 6.23058 40.9038 5.5919 40.5599 5.14054C40.2159 4.6903 39.7317 4.4649 39.1066 4.4649C38.3859 4.4649 37.8684 4.7057 37.5531 5.18842C37.2376 5.67226 37.0804 6.4865 37.0804 7.63282L37.0804 12.651L35.4583 12.651L35.4583 7.80726ZM45.7377 7.99318C45.7377 8.95358 46.0376 9.75382 46.637 10.3945C47.235 11.0345 47.9819 11.3551 48.8751 11.3551C49.7516 11.3551 50.4865 11.032 51.0799 10.3852C51.6734 9.73898 51.9698 8.93594 51.9698 7.97526C51.9698 6.9975 51.6734 6.19306 51.0799 5.56082C50.4865 4.92942 49.747 4.61386 48.8585 4.61386C47.9881 4.61386 47.25 4.93558 46.6445 5.57846C46.0406 6.22162 45.7377 7.02718 45.7377 7.99318ZM43.9758 8.00998C43.9758 7.33518 44.0885 6.7007 44.312 6.10654C44.5357 5.51294 44.8751 4.9717 45.3301 4.48254C45.7843 3.99509 46.322 3.60093 46.9155 3.32054C47.5181 3.03662 48.1389 2.89326 48.7809 2.89326C49.4747 2.89326 50.1138 3.01702 50.6979 3.26426C51.2822 3.51178 51.8116 3.88278 52.2878 4.37838C52.7402 4.84588 53.1019 5.40016 53.3529 6.01078C53.6056 6.62202 53.732 7.24838 53.732 7.88818C53.732 8.55822 53.6177 9.20138 53.388 9.81794C53.1584 10.4356 52.8327 10.9766 52.408 11.4425C52.1783 11.6984 51.9258 11.9297 51.6474 12.1369C51.3752 12.3397 51.0861 12.5163 50.7835 12.6647C50.1816 12.9385 49.5316 13.0783 48.8751 13.0752C48.1829 13.0752 47.5438 12.9483 46.9595 12.6955C46.3738 12.4421 45.8504 12.068 45.3862 11.5733C44.951 11.102 44.6041 10.5546 44.3455 9.93162C44.2288 9.62309 44.1372 9.30481 44.0718 8.98018C44.0075 8.66126 43.9753 8.33618 43.9758 8.01026M55.9569 7.20554C55.752 8.17602 55.8808 9.06194 56.3433 9.86386C56.8058 10.6658 57.472 11.1715 58.3434 11.382C59.1322 11.5724 59.9019 11.41 60.6515 10.8948C61.4001 10.3788 61.8674 9.68242 62.0528 8.80462C62.2503 7.86886 62.1196 6.99218 61.6608 6.17262C61.2021 5.35362 60.5592 4.84374 59.7313 4.64382C58.877 4.43774 58.0826 4.58222 57.3497 5.0767C56.6161 5.57202 56.152 6.28154 55.9569 7.20554ZM60.9861 13.5335L61.2348 12.355C60.7229 12.7148 60.1858 12.9506 59.6199 13.0615C59.0574 13.1726 58.4787 13.1592 57.9214 13.0223C56.5746 12.6975 55.5545 11.9454 54.8604 10.766C54.1664 9.5861 53.9732 8.27206 54.2788 6.82334C54.4226 6.14182 54.6694 5.5275 55.0193 4.9787C55.3604 4.44103 55.7992 3.97834 56.3108 3.61678C56.8571 3.22254 57.4269 2.96886 58.0207 2.85462C58.6125 2.74122 59.2527 2.76726 59.9389 2.93302C60.5474 3.07974 61.0867 3.3309 61.5557 3.6851C62.0244 4.04042 62.4282 4.50886 62.7681 5.09266L63.9035 -0.0761361L65.5205 0.314184L62.6031 13.9236L60.9861 13.5333L60.9861 13.5335Z" fill="#1F242B" fill-opacity="0.2"/>
</svg>
