<svg width="66" height="14" viewBox="0 0 66 14" fill="none" xmlns="http://www.w3.org/2000/svg">
<g clip-path="url(#clip0_296_7299)">
<path fill-rule="evenodd" clip-rule="evenodd" d="M2.73197 13.0754L1.13831 13.0754L1.13831 4.79023L0.0731886 4.79023L0.0731886 3.25387L1.08975 3.25387L1.08975 2.95931C1.08975 1.96587 1.34435 1.21099 1.85384 0.695785C2.3636 0.181425 3.12502 -0.0761746 4.13836 -0.0761746L4.13836 1.55819L4.00019 1.55819C3.52799 1.55819 3.18833 1.67663 2.9796 1.91519C2.77087 2.15319 2.6673 2.55219 2.6673 3.11191L2.6673 3.25387L4.13836 3.25387L4.13836 4.79023L2.73197 4.79023L2.73197 13.0754ZM6.17094 12.6512L7.79679 12.6512L7.79679 3.03603L6.17094 3.03603L6.17094 12.6512ZM6.17094 1.90847L7.79679 1.90847L7.79679 -0.0761744L6.17094 -0.0761745L6.17094 1.90847ZM10.6426 12.6495L10.6426 -0.0761743L12.3377 -0.0761742L12.3376 7.48663L15.7262 3.03379L17.7244 3.03519L14.2318 7.59807L18.3662 12.6495L16.167 12.6512L12.3376 7.76579L12.3376 12.6495L10.6426 12.6495ZM19.5856 12.6512L21.2114 12.6512L21.2114 3.03603L19.5856 3.03603L19.5856 12.6512ZM19.5856 1.90847L21.2114 1.90847L21.2114 -0.0761738L19.5856 -0.0761739L19.5856 1.90847ZM25.6817 12.6512L24.0572 12.6512L24.0572 3.05031L25.583 3.05031L25.583 4.15911C25.8457 3.74023 26.1534 3.42411 26.5048 3.21187C26.8577 2.99907 27.2614 2.89351 27.7156 2.89351L27.7156 4.70063C27.376 4.70063 27.0726 4.76167 26.8053 4.88375C26.5368 5.00555 26.3176 5.17495 26.1491 5.38943C25.8371 5.78535 25.6817 6.42543 25.6817 7.31023L25.6817 12.6512ZM35.4583 7.80751C35.4583 6.64355 35.2968 5.79515 34.9724 5.26287C34.6494 4.73059 34.141 4.46487 33.4472 4.46487C32.7266 4.46487 32.1943 4.73227 31.8519 5.26763C31.508 5.80299 31.336 6.62647 31.336 7.73723L31.336 12.6512L29.7482 12.6512L29.7482 3.05059L31.2346 3.05059L31.2346 4.17675C31.5335 3.75731 31.8817 3.43895 32.2825 3.22111C32.6818 3.00271 33.1303 2.89351 33.6253 2.89351C34.3012 2.89351 34.8619 3.02427 35.3059 3.28607C35.7513 3.54787 36.1221 3.96983 36.4212 4.55223C36.7024 3.99923 37.082 3.58427 37.562 3.30847C38.0406 3.03183 38.6177 2.89351 39.2936 2.89351C40.3399 2.89351 41.1788 3.24659 41.8101 3.95415C42.4406 4.66115 42.7564 5.60531 42.7564 6.78635L42.7564 12.6512L41.0742 12.6512L41.0742 7.05683C41.0742 6.23083 40.9038 5.59215 40.5599 5.14079C40.2159 4.69055 39.7317 4.46515 39.1066 4.46515C38.3859 4.46515 37.8684 4.70595 37.5531 5.18867C37.2376 5.67251 37.0804 6.48675 37.0804 7.63307L37.0804 12.6512L35.4583 12.6512L35.4583 7.80751ZM45.7377 7.99343C45.7377 8.95383 46.0376 9.75407 46.637 10.3947C47.235 11.0348 47.9819 11.3554 48.8751 11.3554C49.7516 11.3554 50.4865 11.0323 51.0799 10.3855C51.6734 9.73923 51.9698 8.93619 51.9698 7.97551C51.9698 6.99775 51.6734 6.19331 51.0799 5.56107C50.4865 4.92967 49.747 4.61411 48.8585 4.61411C47.9881 4.61411 47.25 4.93583 46.6445 5.57871C46.0406 6.22187 45.7377 7.02743 45.7377 7.99343ZM43.9758 8.01023C43.9758 7.33543 44.0885 6.70095 44.312 6.10679C44.5357 5.51319 44.8751 4.97195 45.3301 4.48279C45.7843 3.99533 46.322 3.60117 46.9155 3.32079C47.5181 3.03687 48.1389 2.89351 48.7809 2.89351C49.4747 2.89351 50.1138 3.01727 50.6979 3.26451C51.2822 3.51203 51.8116 3.88303 52.2878 4.37863C52.7402 4.84613 53.1019 5.40041 53.3529 6.01103C53.6056 6.62227 53.732 7.24863 53.732 7.88843C53.732 8.55847 53.6177 9.20163 53.388 9.81819C53.1584 10.4359 52.8327 10.9768 52.408 11.4427C52.1783 11.6987 51.9258 11.9299 51.6474 12.1371C51.3752 12.3399 51.0861 12.5166 50.7835 12.6649C50.1816 12.9387 49.5316 13.0785 48.8751 13.0754C48.1829 13.0754 47.5438 12.9486 46.9595 12.6957C46.3738 12.4423 45.8504 12.0683 45.3862 11.5735C44.951 11.1023 44.6041 10.5549 44.3455 9.93187C44.2288 9.62333 44.1372 9.30505 44.0718 8.98043C44.0075 8.66151 43.9753 8.33643 43.9758 8.01051M55.9569 7.20579C55.752 8.17627 55.8808 9.06219 56.3433 9.86411C56.8058 10.666 57.472 11.1717 58.3434 11.3823C59.1322 11.5727 59.9019 11.4103 60.6515 10.8951C61.4001 10.379 61.8674 9.68267 62.0528 8.80487C62.2503 7.86911 62.1196 6.99243 61.6608 6.17287C61.2021 5.35387 60.5592 4.84399 59.7313 4.64407C58.877 4.43799 58.0826 4.58247 57.3497 5.07695C56.6161 5.57227 56.152 6.28179 55.9569 7.20579ZM60.9861 13.5338L61.2348 12.3553C60.7229 12.7151 60.1858 12.9508 59.6199 13.0617C59.0574 13.1728 58.4787 13.1595 57.9214 13.0225C56.5746 12.6977 55.5545 11.9456 54.8604 10.7663C54.1664 9.58635 53.9732 8.27231 54.2788 6.82359C54.4226 6.14207 54.6694 5.52775 55.0193 4.97895C55.3604 4.44128 55.7992 3.97859 56.3108 3.61703C56.8571 3.22279 57.4269 2.96911 58.0207 2.85487C58.6125 2.74147 59.2527 2.76751 59.9389 2.93327C60.5474 3.07999 61.0867 3.33115 61.5557 3.68535C62.0244 4.04067 62.4282 4.50911 62.7681 5.09291L63.9035 -0.0758919L65.5205 0.314428L62.6031 13.9238L60.9861 13.5335L60.9861 13.5338Z" fill="white" fill-opacity="0.2"/>
</g>
<defs>
<clipPath id="clip0_296_7299">
<rect width="14" height="66" fill="white" transform="translate(66) rotate(90)"/>
</clipPath>
</defs>
</svg>
