<svg width="181" height="36" viewBox="0 0 181 36" fill="none" xmlns="http://www.w3.org/2000/svg">
<path d="M35.0512 8.88755V16.4912L19.2289 5.98671L11.4961 11.0112V21.7435L0 29.0482V7.30476L11.4961 0V6.77527L21.8122 0.139492L35.0512 8.88755ZM35.2521 19.3693L18.8611 8.31536L13.2192 12.2951L35.2521 27.1438V19.3693Z" fill="#FF6C0E"/>
<path d="M17.6727 22.0029H12.1553V24.0583H17.6727V22.0029ZM24.9161 22.0029H19.3987V24.0583H24.9161V22.0029ZM17.6727 26.1165H12.1553V28.1718H17.6727V26.1165ZM24.9161 26.1165H19.3987V28.1718H24.9161V26.1165Z" fill="#4D4A47"/>
<path d="M107.68 3.50175C108.209 4.5949 107.694 6.00404 106.616 6.53069C105.745 6.98902 104.588 6.86945 103.863 6.18623C103.232 5.63111 102.947 4.71162 103.165 3.8946C103.388 2.95802 104.245 2.2264 105.196 2.13246C106.201 1.99866 107.253 2.57655 107.68 3.50175ZM127.116 23.6311V21.8547C127.119 21.8576 127.119 21.8576 127.121 21.8604C127.124 17.5021 127.121 13.1437 127.121 8.78247C125.874 8.78247 124.629 8.78247 123.381 8.78247C123.381 11.8513 123.381 14.9201 123.381 17.9889V19.6684C119.85 15.925 116.316 12.1843 112.79 8.43801C112.38 8.42947 111.97 8.42947 111.56 8.44086C111.56 9.70766 111.56 10.9745 111.56 12.2413V16.4402L111.562 16.4431C111.56 20.0157 111.562 23.5884 111.56 27.1582C112.807 27.1753 114.052 27.1639 115.3 27.1639C115.303 24.0724 115.297 20.9779 115.303 17.8864V16.2296C118.826 19.9816 122.351 23.7308 125.871 27.4856C126.29 27.4885 126.706 27.4885 127.121 27.4856C127.119 26.2017 127.13 24.915 127.116 23.6311ZM54.9309 8.78816C53.502 8.79385 52.0675 8.75685 50.6358 8.80524C48.9211 11.1282 47.2178 13.4597 45.5145 15.794C45.5145 13.4568 45.5145 11.1225 45.5145 8.78531C44.2667 8.78531 43.0189 8.78531 41.7739 8.78531C41.7739 14.9144 41.7739 21.0406 41.7739 27.1668C43.0217 27.1668 44.2695 27.1668 45.5173 27.1668C45.5173 24.4681 45.5173 21.7693 45.5173 19.0706C47.5149 21.7693 49.5153 24.4624 51.5044 27.1668C52.9616 27.1668 54.4216 27.1753 55.8787 27.1611C53.4709 23.8987 51.0574 20.6392 48.6495 17.3768C50.7546 14.5215 52.8342 11.6491 54.9309 8.78816ZM101.008 8.78816C99.5796 8.79385 98.1451 8.75685 96.7134 8.80524C94.9987 11.1282 93.2954 13.4597 91.5921 15.794C91.5921 13.4568 91.5921 11.1225 91.5921 8.78531C90.3443 8.78531 89.0965 8.78531 87.8515 8.78531C87.8515 14.9144 87.8515 21.0406 87.8515 27.1668C89.0993 27.1668 90.3471 27.1668 91.5949 27.1668C91.5949 24.4681 91.5949 21.7693 91.5949 19.0706C93.5925 21.7693 95.5929 24.4624 97.582 27.1668C99.0392 27.1668 100.499 27.1753 101.956 27.1611C99.5485 23.8987 97.135 20.6392 94.7271 17.3768C96.8322 14.5215 98.9119 11.6491 101.008 8.78816ZM70.4561 25.3392C70.4334 24.8068 70.4787 24.2745 70.4165 23.745C67.4625 23.7564 64.5057 23.7478 61.5518 23.7478C61.5518 22.1992 61.5518 20.6477 61.5518 19.0991C63.357 19.0991 66.3024 19.0991 67.87 19.0991C67.8728 18.0316 67.87 16.9669 67.87 15.8993C66.2996 15.8993 63.357 15.8993 61.549 15.8993C61.549 14.6553 61.549 13.4113 61.549 12.1644C64.4011 12.1616 67.256 12.1644 70.1081 12.1644C70.1081 11.0371 70.1081 9.90978 70.1081 8.77962C66.0082 8.77962 61.9083 8.77677 57.8084 8.77962C57.8084 14.9058 57.8084 21.0349 57.8084 27.1611C62.0271 27.1554 66.243 27.1753 70.4589 27.1497C70.4532 27.0444 70.4419 26.8337 70.4363 26.7284C70.4617 26.2701 70.4391 25.806 70.4561 25.3392ZM103.657 27.1668C104.905 27.1668 106.15 27.1668 107.397 27.1668C107.397 21.0377 107.397 14.9115 107.397 8.78247C106.15 8.78247 104.905 8.78247 103.657 8.78247C103.657 14.9115 103.657 21.0377 103.657 27.1668ZM83.9356 18.1369C82.4699 16.9612 80.6676 16.3605 78.9897 15.5634C78.9105 15.5236 78.8313 15.4837 78.7549 15.4439C78.1069 15.0795 77.6485 14.5187 77.4363 14.2283C77.3288 14.0603 77.2722 13.9152 77.2468 13.8269C76.6158 11.4499 80.0536 11.8683 80.3195 11.9054C80.4412 11.9338 80.5601 11.968 80.6761 12.0107C81.6183 12.3352 82.32 13.0981 82.8802 13.8952C83.729 13.2405 84.5779 12.5829 85.421 11.9196C84.7137 10.6585 83.6187 9.61941 82.3058 9.02729C81.058 8.50633 79.6348 8.2729 78.305 8.58604C77.3996 8.71699 77.1053 8.91627 77.1053 8.91627C75.9933 9.25218 74.9436 9.88416 74.2419 10.8321C73.3053 12.0363 73.1101 13.7187 73.5572 15.1592C73.8939 16.241 74.7229 17.0779 75.6198 17.7241C77.193 18.8799 79.0887 19.4322 80.7807 20.3773C81.1684 20.5908 81.5362 20.8726 81.7512 21.2683C81.9521 21.5928 82.0116 21.9658 82.0285 22.3415C82.0257 23.3977 80.8458 23.9585 80.8458 23.9585C80.0281 24.1635 79.1623 24.2375 78.3361 24.0354C76.8931 23.745 75.8094 22.6177 74.9549 21.4818C74.1004 22.1252 73.2516 22.7742 72.3942 23.4148C73.2091 24.9606 74.5956 26.1818 76.1942 26.8536C77.6542 27.4401 79.2981 27.6564 80.8458 27.3347C80.8458 27.3347 81.8276 27.0814 82.3483 26.8622C82.3483 26.8622 82.3483 26.8622 82.3511 26.8622C83.1631 26.5604 83.9271 26.1135 84.5156 25.4644C85.7917 24.1464 86.1369 22.0939 85.5936 20.3659C85.2994 19.4663 84.6741 18.7091 83.9356 18.1369Z" fill="#4D4A47"/>
<path d="M129.173 8.78836C130.556 8.77982 131.94 8.78551 133.327 8.78551C135.287 12.2472 137.251 15.7088 139.217 19.1676C139.215 21.8322 139.217 24.4996 139.217 27.1641C137.97 27.1698 136.722 27.1727 135.477 27.1613C135.471 24.7387 135.497 22.3133 135.466 19.8907C133.389 16.1785 131.267 12.4891 129.173 8.78836ZM137.967 14.5473C138.575 15.7373 139.26 16.8931 139.902 18.0659C141.781 14.9829 143.626 11.8771 145.493 8.78836C144.118 8.77982 142.743 8.78551 141.368 8.78551C140.245 10.7099 139.056 12.6059 137.967 14.5473ZM161.678 27.167C162.925 27.167 164.173 27.167 165.421 27.167C165.421 22.1368 165.421 17.1066 165.421 12.0735C166.318 12.0735 167.215 12.0735 168.112 12.0735C168.788 12.0564 169.504 12.0707 170.104 12.4407C171.708 13.3574 171.719 16.0703 170.129 17.0041C169.043 17.6076 167.761 17.3229 166.581 17.3912C166.581 18.4844 166.581 19.5775 166.581 20.6707C167.829 20.6451 169.094 20.7732 170.322 20.4857C171.66 20.2038 172.93 19.5121 173.819 18.4531C175.267 16.7564 175.505 14.1972 174.6 12.1874C173.884 10.616 172.39 9.4972 170.749 9.06449C169.478 8.68872 168.14 8.8026 166.833 8.78267C165.115 8.78267 163.401 8.78267 161.683 8.78267C161.678 14.9117 161.678 21.0379 161.678 27.167ZM149.33 11.4501C151.562 16.6938 153.817 21.9261 156.053 27.167C157.382 27.167 158.715 27.1698 160.048 27.167C157.326 20.9269 154.612 14.684 151.902 8.43821C151.486 8.43821 151.073 8.43537 150.66 8.44106C150.215 9.44312 149.768 10.4452 149.33 11.4501ZM146.495 27.167C146.837 26.3699 147.168 25.57 147.494 24.7672C149.579 24.7643 151.664 24.7672 153.749 24.7643C153.319 23.7253 152.858 22.7033 152.428 21.6642C151.237 21.6614 150.051 21.6642 148.86 21.6614C149.333 20.5312 149.817 19.4067 150.292 18.2766C150.402 18.0175 150.484 17.7357 150.685 17.525C150.595 17.3685 150.498 17.2119 150.431 17.0468C149.845 15.6775 149.245 14.3168 148.662 12.9503C146.605 17.6845 144.554 22.4214 142.485 27.1527C143.824 27.1841 145.159 27.1584 146.495 27.167ZM181 8.79121H177.259V27.167H181V8.79121Z" fill="#FF6C0E"/>
<path d="M72.9122 34.1269L71.6729 32.3164H72.0803L73.0847 33.8166L74.0977 32.3164H74.4882L73.2489 34.1241V35.314H72.9093V34.1269H72.9122Z" fill="#4D4A47"/>
<path d="M78.042 34.6711V34.6625C78.042 34.1957 78.424 33.948 78.9842 33.948C79.2643 33.948 79.4652 33.9879 79.6604 34.042V33.9651C79.6604 33.5665 79.4171 33.3616 79.004 33.3616C78.7437 33.3616 78.54 33.4299 78.3362 33.5238L78.2372 33.2534C78.4806 33.1424 78.7182 33.0684 79.038 33.0684C79.3492 33.0684 79.5869 33.1509 79.7482 33.3132C79.8981 33.4641 79.9745 33.6776 79.9745 33.9594V35.3116H79.6604V34.9785C79.5076 35.1807 79.253 35.36 78.8654 35.36C78.4551 35.36 78.042 35.1266 78.042 34.6711ZM79.6633 34.5003V34.2868C79.502 34.2384 79.2841 34.1928 79.0153 34.1928C78.6022 34.1928 78.373 34.3722 78.373 34.6512V34.6597C78.373 34.9387 78.6277 35.1009 78.9276 35.1009C79.3322 35.1009 79.6633 34.8504 79.6633 34.5003Z" fill="#4D4A47"/>
<path d="M84.332 33.0992H84.6602V33.5433C84.8385 33.2785 85.0988 33.0508 85.5034 33.0508C86.0325 33.0508 86.556 33.4693 86.556 34.198V34.2066C86.556 34.9296 86.0354 35.3595 85.5034 35.3595C85.096 35.3595 84.83 35.1375 84.6602 34.8898V36H84.332V33.0992ZM86.2193 34.2123V34.2037C86.2193 33.6799 85.8628 33.3468 85.444 33.3468C85.0366 33.3468 84.6489 33.6941 84.6489 34.198V34.2066C84.6489 34.7218 85.0366 35.0634 85.444 35.0634C85.8713 35.0663 86.2193 34.7474 86.2193 34.2123Z" fill="#4D4A47"/>
<path d="M90.8511 33.0996H91.1793V35.3144H90.8511V33.0996Z" fill="#4D4A47"/>
<path d="M101.424 35.8316L101.753 35.3534C101 35.2537 100.462 34.6161 100.462 33.8247V33.8161C100.462 32.9678 101.093 32.2646 101.97 32.2646C102.511 32.2646 102.833 32.4582 103.133 32.7401L102.904 32.9877C102.652 32.7486 102.372 32.5778 101.968 32.5778C101.308 32.5778 100.813 33.1187 100.813 33.8076V33.8161C100.813 34.5107 101.311 35.0545 101.968 35.0545C102.375 35.0545 102.644 34.895 102.93 34.6218L103.15 34.841C102.853 35.1456 102.528 35.3477 102.027 35.3619L101.747 35.9797L101.424 35.8316Z" fill="#4D4A47"/>
<path d="M107.163 34.2183V34.2098C107.163 33.5835 107.646 33.054 108.311 33.054C108.971 33.054 109.457 33.5778 109.457 34.2012V34.2098C109.457 34.836 108.968 35.3655 108.303 35.3655C107.644 35.3655 107.163 34.8417 107.163 34.2183ZM109.121 34.2183V34.2098C109.121 33.7344 108.767 33.3443 108.303 33.3443C107.825 33.3443 107.499 33.7344 107.499 34.2012V34.2098C107.499 34.6852 107.847 35.0695 108.311 35.0695C108.79 35.0695 109.121 34.6852 109.121 34.2183ZM107.745 32.3594H108.125V32.7665H107.745V32.3594ZM108.49 32.3594H108.869V32.7665H108.49V32.3594Z" fill="#4D4A47"/>
<path d="M113.498 35.1037L114.958 33.3786H113.548V33.0996H115.405V33.3103L113.939 35.0354H115.405V35.3144H113.498V35.1037Z" fill="#4D4A47"/>
<path d="M119.618 34.4745V33.0995H119.946V34.392C119.946 34.8019 120.167 35.0609 120.555 35.0609C120.928 35.0609 121.214 34.782 121.214 34.3663V33.0995H121.537V35.3143H121.214V34.93C121.064 35.1691 120.84 35.3627 120.461 35.3627C119.929 35.3599 119.618 35.0012 119.618 34.4745ZM120.014 32.3594H120.393V32.7665H120.014V32.3594ZM120.758 32.3594H121.138V32.7665H120.758V32.3594Z" fill="#4D4A47"/>
<path d="M125.936 33.0993H126.264V33.4722C126.408 33.253 126.604 33.0537 126.974 33.0537C127.331 33.0537 127.563 33.2473 127.682 33.495C127.84 33.2501 128.072 33.0537 128.457 33.0537C128.963 33.0537 129.275 33.3953 129.275 33.9447V35.314H128.946V34.0216C128.946 33.5946 128.734 33.3526 128.375 33.3526C128.044 33.3526 127.769 33.6003 127.769 34.0387V35.314H127.441V34.0131C127.441 33.5974 127.223 33.3526 126.875 33.3526C126.527 33.3526 126.261 33.643 126.261 34.0501V35.314H125.933V33.0993H125.936Z" fill="#4D4A47"/>
<path d="M133.675 32.1885H134.003V35.3142H133.675V32.1885Z" fill="#4D4A47"/>
<path d="M138.29 34.2123V34.2037C138.29 33.566 138.737 33.0508 139.345 33.0508C139.996 33.0508 140.372 33.5746 140.372 34.2208C140.372 34.2635 140.372 34.2891 140.366 34.329H138.621C138.669 34.8072 139.003 35.0777 139.396 35.0777C139.699 35.0777 139.911 34.9524 140.089 34.7645L140.293 34.9496C140.072 35.1972 139.803 35.3652 139.387 35.3652C138.782 35.3652 138.29 34.8983 138.29 34.2123ZM140.038 34.0842C140.004 33.6828 139.775 33.3298 139.336 33.3298C138.954 33.3298 138.663 33.6514 138.621 34.0842H140.038Z" fill="#4D4A47"/>
<path d="M144.607 33.0992H144.936V33.6771C145.097 33.3099 145.417 33.0423 145.833 33.0594V33.4152H145.807C145.326 33.4152 144.936 33.7625 144.936 34.4315V35.314H144.607V33.0992Z" fill="#4D4A47"/>
<path d="M150 32.251H150.374V32.6154H150V32.251ZM150.02 33.0993H150.349V35.3141H150.02V33.0993Z" fill="#4D4A47"/>
</svg>
