<svg width="181" height="36" viewBox="0 0 181 36" fill="none" xmlns="http://www.w3.org/2000/svg">
<path d="M35.0512 8.88753V16.4912L19.229 5.9867L11.4961 11.0112V21.7434L0 29.0482V7.30474L11.4961 0V6.77525L21.8122 0.139492L35.0512 8.88753ZM35.2521 19.3692L18.8611 8.31534L13.2192 12.2951L35.2521 27.1437V19.3692Z" fill="white"/>
<path d="M17.6727 22.002H12.1553V24.0573H17.6727V22.002ZM24.9161 22.002H19.3987V24.0573H24.9161V22.002ZM17.6727 26.1155H12.1553V28.1708H17.6727V26.1155ZM24.9161 26.1155H19.3987V28.1708H24.9161V26.1155Z" fill="white"/>
<path d="M107.681 3.50272C108.21 4.59587 107.695 6.00501 106.617 6.53165C105.745 6.98998 104.588 6.87041 103.864 6.1872C103.233 5.63208 102.947 4.71259 103.165 3.89557C103.389 2.95899 104.246 2.22738 105.197 2.13344C106.201 1.99964 107.254 2.57753 107.681 3.50272ZM127.116 23.632V21.8557C127.119 21.8585 127.119 21.8585 127.122 21.8614C127.125 17.503 127.122 13.1446 127.122 8.78343C125.874 8.78343 124.629 8.78343 123.381 8.78343C123.381 11.8522 123.381 14.921 123.381 17.9898V19.6694C119.85 15.9259 116.316 12.1853 112.791 8.43897C112.381 8.43043 111.97 8.43043 111.56 8.44182C111.56 9.70862 111.56 10.9754 111.56 12.2422V16.4412L111.563 16.444C111.56 20.0167 111.563 23.5893 111.56 27.1592C112.808 27.1762 114.053 27.1648 115.301 27.1648C115.303 24.0733 115.298 20.9789 115.303 17.8873V16.2305C118.826 19.9825 122.352 23.7317 125.871 27.4865C126.29 27.4894 126.706 27.4894 127.122 27.4865C127.119 26.2026 127.13 24.9159 127.116 23.632ZM54.9314 8.78912C53.5025 8.79481 52.068 8.75781 50.6363 8.8062C48.9216 11.1291 47.2183 13.4606 45.5149 15.795C45.5149 13.4578 45.5149 11.1234 45.5149 8.78627C44.2672 8.78627 43.0194 8.78627 41.7744 8.78627C41.7744 14.9153 41.7744 21.0415 41.7744 27.1677C43.0222 27.1677 44.27 27.1677 45.5178 27.1677C45.5178 24.469 45.5178 21.7703 45.5178 19.0716C47.5154 21.7703 49.5158 24.4633 51.5049 27.1677C52.9621 27.1677 54.4221 27.1762 55.8792 27.162C53.4714 23.8996 51.0578 20.6401 48.65 17.3777C50.7551 14.5225 52.8347 11.6501 54.9314 8.78912ZM101.009 8.78912C99.5801 8.79481 98.1456 8.75781 96.7139 8.8062C94.9992 11.1291 93.2959 13.4606 91.5926 15.795C91.5926 13.4578 91.5926 11.1234 91.5926 8.78627C90.3448 8.78627 89.097 8.78627 87.852 8.78627C87.852 14.9153 87.852 21.0415 87.852 27.1677C89.0998 27.1677 90.3476 27.1677 91.5954 27.1677C91.5954 24.469 91.5954 21.7703 91.5954 19.0716C93.593 21.7703 95.5934 24.4633 97.5825 27.1677C99.0397 27.1677 100.5 27.1762 101.957 27.162C99.549 23.8996 97.1355 20.6401 94.7276 17.3777C96.8327 14.5225 98.9123 11.6501 101.009 8.78912ZM70.4566 25.3401C70.4339 24.8077 70.4792 24.2754 70.4169 23.7459C67.463 23.7573 64.5062 23.7488 61.5523 23.7488C61.5523 22.2001 61.5523 20.6487 61.5523 19.1C63.3575 19.1 66.3029 19.1 67.8704 19.1C67.8733 18.0325 67.8704 16.9678 67.8704 15.9003C66.3001 15.9003 63.3575 15.9003 61.5494 15.9003C61.5494 14.6563 61.5494 13.4122 61.5494 12.1654C64.4015 12.1625 67.2565 12.1654 70.1085 12.1654C70.1085 11.038 70.1085 9.91074 70.1085 8.78058C66.0087 8.78058 61.9088 8.77773 57.8089 8.78058C57.8089 14.9068 57.8089 21.0358 57.8089 27.162C62.0276 27.1563 66.2435 27.1762 70.4594 27.1506C70.4537 27.0453 70.4424 26.8346 70.4368 26.7293C70.4622 26.271 70.4396 25.8069 70.4566 25.3401ZM103.657 27.1677C104.905 27.1677 106.15 27.1677 107.398 27.1677C107.398 21.0387 107.398 14.9125 107.398 8.78343C106.15 8.78343 104.905 8.78343 103.657 8.78343C103.657 14.9125 103.657 21.0387 103.657 27.1677ZM83.9361 18.1378C82.4704 16.9621 80.668 16.3615 78.9902 15.5644C78.911 15.5245 78.8317 15.4847 78.7553 15.4448C78.1074 15.0804 77.649 14.5196 77.4368 14.2292C77.3293 14.0613 77.2727 13.9161 77.2472 13.8279C76.6163 11.4508 80.0541 11.8693 80.32 11.9063C80.4417 11.9348 80.5605 11.9689 80.6765 12.0116C81.6187 12.3362 82.3204 13.0991 82.8807 13.8962C83.7295 13.2414 84.5784 12.5838 85.4215 11.9205C84.7142 10.6594 83.6192 9.62037 82.3063 9.02825C81.0585 8.50729 79.6353 8.27386 78.3055 8.587C77.4 8.71795 77.1058 8.91723 77.1058 8.91723C75.9938 9.25314 74.9441 9.88512 74.2424 10.8331C73.3058 12.0373 73.1106 13.7197 73.5576 15.1601C73.8943 16.2419 74.7234 17.0788 75.6203 17.725C77.1935 18.8808 79.0892 19.4331 80.7812 20.3782C81.1689 20.5917 81.5367 20.8735 81.7517 21.2692C81.9526 21.5938 82.012 21.9667 82.029 22.3425C82.0262 23.3986 80.8463 23.9594 80.8463 23.9594C80.0286 24.1644 79.1628 24.2384 78.3366 24.0363C76.8936 23.7459 75.8099 22.6186 74.9554 21.4827C74.1009 22.1261 73.2521 22.7752 72.3947 23.4157C73.2096 24.9615 74.5961 26.1827 76.1947 26.8545C77.6547 27.441 79.2986 27.6573 80.8463 27.3356C80.8463 27.3356 81.8281 27.0823 82.3487 26.8631C82.3487 26.8631 82.3487 26.8631 82.3516 26.8631C83.1636 26.5613 83.9276 26.1144 84.5161 25.4653C85.7922 24.1473 86.1374 22.0948 85.5941 20.3668C85.2999 19.4672 84.6746 18.71 83.9361 18.1378Z" fill="white"/>
<path d="M129.173 8.78836C130.556 8.77982 131.94 8.78551 133.327 8.78551C135.287 12.2472 137.251 15.7088 139.217 19.1676C139.215 21.8321 139.217 24.4995 139.217 27.1641C137.97 27.1698 136.722 27.1726 135.477 27.1612C135.471 24.7387 135.497 22.3132 135.466 19.8907C133.389 16.1785 131.267 12.4891 129.173 8.78836ZM137.967 14.5473C138.575 15.7373 139.26 16.893 139.902 18.0659C141.781 14.9829 143.626 11.8771 145.493 8.78836C144.118 8.77982 142.743 8.78551 141.368 8.78551C140.245 10.7099 139.056 12.6058 137.967 14.5473ZM161.678 27.1669C162.925 27.1669 164.173 27.1669 165.421 27.1669C165.421 22.1367 165.421 17.1065 165.421 12.0735C166.318 12.0735 167.215 12.0735 168.112 12.0735C168.788 12.0564 169.504 12.0707 170.104 12.4407C171.708 13.3574 171.719 16.0703 170.129 17.0041C169.043 17.6076 167.761 17.3229 166.581 17.3912C166.581 18.4844 166.581 19.5775 166.581 20.6707C167.829 20.645 169.094 20.7731 170.322 20.4856C171.66 20.2038 172.93 19.512 173.819 18.453C175.267 16.7564 175.505 14.1972 174.6 12.1874C173.884 10.616 172.39 9.4972 170.749 9.06449C169.478 8.68872 168.14 8.8026 166.833 8.78267C165.115 8.78267 163.401 8.78267 161.683 8.78267C161.678 14.9117 161.678 21.0379 161.678 27.1669ZM149.33 11.4501C151.562 16.6938 153.817 21.9261 156.053 27.1669C157.382 27.1669 158.715 27.1698 160.048 27.1669C157.326 20.9269 154.612 14.684 151.902 8.43821C151.486 8.43821 151.073 8.43537 150.66 8.44106C150.215 9.44311 149.768 10.4452 149.33 11.4501ZM146.495 27.1669C146.837 26.3698 147.168 25.5699 147.494 24.7671C149.579 24.7643 151.664 24.7671 153.749 24.7643C153.319 23.7252 152.858 22.7032 152.428 21.6642C151.237 21.6613 150.051 21.6642 148.86 21.6613C149.333 20.5312 149.817 19.4067 150.292 18.2766C150.402 18.0175 150.484 17.7357 150.685 17.525C150.595 17.3684 150.498 17.2119 150.431 17.0468C149.845 15.6775 149.245 14.3167 148.662 12.9503C146.605 17.6844 144.554 22.4214 142.485 27.1527C143.824 27.184 145.159 27.1584 146.495 27.1669ZM181 8.79121H177.259V27.1669H181V8.79121Z" fill="white"/>
<path d="M72.9122 34.1269L71.6729 32.3164H72.0803L73.0847 33.8166L74.0977 32.3164H74.4882L73.2489 34.1241V35.314H72.9093V34.1269H72.9122Z" fill="white"/>
<path d="M78.042 34.6701V34.6616C78.042 34.1947 78.424 33.947 78.9842 33.947C79.2643 33.947 79.4652 33.9869 79.6604 34.041V33.9641C79.6604 33.5656 79.4171 33.3606 79.004 33.3606C78.7437 33.3606 78.54 33.4289 78.3362 33.5229L78.2372 33.2524C78.4806 33.1414 78.7182 33.0674 79.038 33.0674C79.3492 33.0674 79.5869 33.1499 79.7482 33.3122C79.8981 33.4631 79.9745 33.6766 79.9745 33.9584V35.3106H79.6604V34.9776C79.5076 35.1797 79.253 35.359 78.8654 35.359C78.4551 35.359 78.042 35.1256 78.042 34.6701ZM79.6633 34.4993V34.2858C79.502 34.2374 79.2841 34.1918 79.0153 34.1918C78.6022 34.1918 78.373 34.3712 78.373 34.6502V34.6587C78.373 34.9377 78.6277 35.1 78.9276 35.1C79.3322 35.1 79.6633 34.8494 79.6633 34.4993Z" fill="white"/>
<path d="M84.332 33.0992H84.6602V33.5433C84.8385 33.2785 85.0988 33.0508 85.5034 33.0508C86.0325 33.0508 86.556 33.4693 86.556 34.198V34.2066C86.556 34.9296 86.0354 35.3595 85.5034 35.3595C85.096 35.3595 84.83 35.1374 84.6602 34.8898V36H84.332V33.0992ZM86.2193 34.2123V34.2037C86.2193 33.6799 85.8628 33.3468 85.444 33.3468C85.0366 33.3468 84.6489 33.6941 84.6489 34.198V34.2066C84.6489 34.7218 85.0366 35.0634 85.444 35.0634C85.8713 35.0663 86.2193 34.7474 86.2193 34.2123Z" fill="white"/>
<path d="M90.8506 33.0996H91.1808V35.3144H90.8506V33.0996Z" fill="white"/>
<path d="M101.423 35.8316L101.751 35.3534C100.999 35.2537 100.461 34.6161 100.461 33.8247V33.8161C100.461 32.9678 101.092 32.2646 101.969 32.2646C102.509 32.2646 102.832 32.4582 103.132 32.74L102.903 32.9877C102.651 32.7486 102.371 32.5778 101.966 32.5778C101.307 32.5778 100.812 33.1187 100.812 33.8076V33.8161C100.812 34.5107 101.31 35.0545 101.966 35.0545C102.374 35.0545 102.642 34.895 102.928 34.6218L103.149 34.8409C102.852 35.1455 102.526 35.3477 102.026 35.3619L101.746 35.9796L101.423 35.8316Z" fill="white"/>
<path d="M107.163 34.2173V34.2088C107.163 33.5825 107.647 33.053 108.312 33.053C108.971 33.053 109.458 33.5768 109.458 34.2002V34.2088C109.458 34.8351 108.968 35.3646 108.303 35.3646C107.644 35.3646 107.163 34.8408 107.163 34.2173ZM109.121 34.2173V34.2088C109.121 33.7334 108.767 33.3434 108.303 33.3434C107.825 33.3434 107.5 33.7334 107.5 34.2002V34.2088C107.5 34.6842 107.848 35.0685 108.312 35.0685C108.79 35.0685 109.121 34.6842 109.121 34.2173ZM107.746 32.3584H108.125V32.7655H107.746V32.3584ZM108.49 32.3584H108.869V32.7655H108.49V32.3584Z" fill="white"/>
<path d="M113.498 35.1037L114.958 33.3786H113.549V33.0996H115.405V33.3103L113.939 35.0354H115.405V35.3144H113.498V35.1037Z" fill="white"/>
<path d="M119.619 34.4735V33.0986H119.947V34.391C119.947 34.8009 120.168 35.06 120.556 35.06C120.929 35.06 121.215 34.781 121.215 34.3654V33.0986H121.537V35.3133H121.215V34.929C121.065 35.1681 120.841 35.3617 120.462 35.3617C119.93 35.3589 119.619 35.0002 119.619 34.4735ZM120.015 32.3584H120.394V32.7655H120.015V32.3584ZM120.759 32.3584H121.139V32.7655H120.759V32.3584Z" fill="white"/>
<path d="M125.936 33.1002H126.265V33.4732C126.409 33.254 126.604 33.0547 126.975 33.0547C127.331 33.0547 127.563 33.2483 127.682 33.4959C127.841 33.2511 128.073 33.0547 128.457 33.0547C128.964 33.0547 129.275 33.3963 129.275 33.9457V35.315H128.947V34.0226C128.947 33.5956 128.735 33.3536 128.375 33.3536C128.044 33.3536 127.77 33.6013 127.77 34.0397V35.315H127.442V34.014C127.442 33.5984 127.224 33.3536 126.876 33.3536C126.528 33.3536 126.262 33.644 126.262 34.051V35.315H125.934V33.1002H125.936Z" fill="white"/>
<path d="M133.674 32.1885H134.004V35.3142H133.674V32.1885Z" fill="white"/>
<path d="M138.289 34.2123V34.2037C138.289 33.566 138.736 33.0508 139.344 33.0508C139.995 33.0508 140.372 33.5746 140.372 34.2208C140.372 34.2635 140.372 34.2891 140.366 34.329H138.62C138.668 34.8072 139.002 35.0777 139.395 35.0777C139.698 35.0777 139.91 34.9524 140.089 34.7645L140.292 34.9496C140.072 35.1972 139.803 35.3652 139.387 35.3652C138.781 35.3652 138.289 34.8983 138.289 34.2123ZM140.038 34.0842C140.004 33.6828 139.775 33.3298 139.336 33.3298C138.954 33.3298 138.663 33.6514 138.62 34.0842H140.038Z" fill="white"/>
<path d="M144.607 33.0992H144.936V33.6771C145.097 33.3099 145.417 33.0423 145.833 33.0594V33.4152H145.807C145.326 33.4152 144.936 33.7625 144.936 34.4315V35.314H144.607V33.0992Z" fill="white"/>
<path d="M150.001 32.252H150.377V32.6163H150.001V32.252ZM150.021 33.1003H150.351V35.3151H150.021V33.1003Z" fill="white"/>
</svg>
