<svg viewBox="0 0 20 20" xmlns="http://www.w3.org/2000/svg">
<path d="M17 10C17 13.866 13.866 17 10 17V18C14.4183 18 18 14.4183 18 10H17ZM10 17C6.13401 17 3 13.866 3 10H2C2 14.4183 5.58172 18 10 18V17ZM3 10C3 6.13401 6.13401 3 10 3V2C5.58172 2 2 5.58172 2 10H3ZM10 3C13.866 3 17 6.13401 17 10H18C18 5.58172 14.4183 2 10 2V3Z M11.9998 10.8333C11.9998 11.1095 12.2237 11.3333 12.4998 11.3333C12.776 11.3333 12.9998 11.1095 12.9998 10.8333H11.9998ZM12.4998 7.5L12.9998 7.5C12.9998 7.36739 12.9472 7.24021 12.8534 7.14645C12.7596 7.05268 12.6324 7 12.4998 7V7.5ZM9.1665 7C8.89036 7 8.6665 7.22386 8.6665 7.5C8.6665 7.77614 8.89036 8 9.1665 8V7ZM12.9998 10.8333L12.9998 7.5L11.9998 7.5L11.9998 10.8333H12.9998ZM12.4998 7H9.1665V8H12.4998V7Z M7.14645 12.1464C6.95118 12.3417 6.95118 12.6583 7.14645 12.8536C7.34171 13.0488 7.65829 13.0488 7.85355 12.8536L7.14645 12.1464ZM12.8536 7.85355C13.0488 7.65829 13.0488 7.34171 12.8536 7.14645C12.6583 6.95118 12.3417 6.95118 12.1464 7.14645L12.8536 7.85355ZM7.85355 12.8536L12.8536 7.85355L12.1464 7.14645L7.14645 12.1464L7.85355 12.8536Z"/>
</svg>
