<svg  viewBox="0 0 20 18" xmlns="http://www.w3.org/2000/svg">
<path d="M18 0.208748H2C0.89 0.208748 0.00999999 1.09875 0.00999999 2.20875L0 14.2087C0 15.3187 0.89 16.2087 2 16.2087H6C6.55 16.2087 7 15.7587 7 15.2087C7 14.6587 6.55 14.2087 6 14.2087H2V8.20875H20V2.20875C20 1.10875 19.1 0.208748 18 0.208748ZM18 4.20875H2V2.20875H18V4.20875ZM12.93 15.3787L10.81 13.2587C10.42 12.8687 9.79 12.8687 9.4 13.2587C9.01 13.6487 9.01 14.2787 9.4 14.6687L12.23 17.4987C12.62 17.8887 13.25 17.8887 13.64 17.4987L19.3 11.8387C19.69 11.4487 19.69 10.8187 19.3 10.4287C18.91 10.0387 18.28 10.0387 17.89 10.4287L12.93 15.3787Z"/>
</svg>
