<svg viewBox="0 0 16 16" xmlns="http://www.w3.org/2000/svg">
<path d="M13.3335 2.66663H2.66683C1.9335 2.66663 1.3335 3.26663 1.3335 3.99996V12C1.3335 12.7333 1.9335 13.3333 2.66683 13.3333H13.3335C14.0668 13.3333 14.6668 12.7333 14.6668 12V3.99996C14.6668 3.26663 14.0668 2.66663 13.3335 2.66663ZM13.0668 5.49996L8.70683 8.22663C8.2735 8.49996 7.72683 8.49996 7.2935 8.22663L2.9335 5.49996C2.76683 5.39329 2.66683 5.21329 2.66683 5.01996C2.66683 4.57329 3.1535 4.30663 3.5335 4.53996L8.00016 7.33329L12.4668 4.53996C12.8468 4.30663 13.3335 4.57329 13.3335 5.01996C13.3335 5.21329 13.2335 5.39329 13.0668 5.49996Z" />
</svg>
