<svg viewBox="0 0 19 18" xmlns="http://www.w3.org/2000/svg">
<path d="M2.33398 8H6.33398C7.43398 8 8.33398 7.1 8.33398 6V2C8.33398 0.9 7.43398 0 6.33398 0H2.33398C1.23398 0 0.333984 0.9 0.333984 2V6C0.333984 7.1 1.23398 8 2.33398 8ZM2.33398 2H6.33398V6H2.33398V2Z M2.33398 18H6.33398C7.43398 18 8.33398 17.1 8.33398 16V12C8.33398 10.9 7.43398 10 6.33398 10H2.33398C1.23398 10 0.333984 10.9 0.333984 12V16C0.333984 17.1 1.23398 18 2.33398 18ZM2.33398 12H6.33398V16H2.33398V12Z M10.334 2V6C10.334 7.1 11.234 8 12.334 8H16.334C17.434 8 18.334 7.1 18.334 6V2C18.334 0.9 17.434 0 16.334 0H12.334C11.234 0 10.334 0.9 10.334 2ZM16.334 6H12.334V2H16.334V6Z M18.334 17.5V16.5C18.334 16.22 18.114 16 17.834 16H16.834C16.554 16 16.334 16.22 16.334 16.5V17.5C16.334 17.78 16.554 18 16.834 18H17.834C18.114 18 18.334 17.78 18.334 17.5Z M10.334 10.5V11.5C10.334 11.78 10.554 12 10.834 12H11.834C12.114 12 12.334 11.78 12.334 11.5V10.5C12.334 10.22 12.114 10 11.834 10H10.834C10.554 10 10.334 10.22 10.334 10.5Z M13.834 12H12.834C12.554 12 12.334 12.22 12.334 12.5V13.5C12.334 13.78 12.554 14 12.834 14H13.834C14.114 14 14.334 13.78 14.334 13.5V12.5C14.334 12.22 14.114 12 13.834 12Z M10.334 14.5V15.5C10.334 15.78 10.554 16 10.834 16H11.834C12.114 16 12.334 15.78 12.334 15.5V14.5C12.334 14.22 12.114 14 11.834 14H10.834C10.554 14 10.334 14.22 10.334 14.5Z M12.834 18H13.834C14.114 18 14.334 17.78 14.334 17.5V16.5C14.334 16.22 14.114 16 13.834 16H12.834C12.554 16 12.334 16.22 12.334 16.5V17.5C12.334 17.78 12.554 18 12.834 18Z M14.834 16H15.834C16.114 16 16.334 15.78 16.334 15.5V14.5C16.334 14.22 16.114 14 15.834 14H14.834C14.554 14 14.334 14.22 14.334 14.5V15.5C14.334 15.78 14.554 16 14.834 16Z M15.834 10H14.834C14.554 10 14.334 10.22 14.334 10.5V11.5C14.334 11.78 14.554 12 14.834 12H15.834C16.114 12 16.334 11.78 16.334 11.5V10.5C16.334 10.22 16.114 10 15.834 10Z M16.834 14H17.834C18.114 14 18.334 13.78 18.334 13.5V12.5C18.334 12.22 18.114 12 17.834 12H16.834C16.554 12 16.334 12.22 16.334 12.5V13.5C16.334 13.78 16.554 14 16.834 14Z"/>
</svg>
