<svg viewBox="0 0 24 24" xmlns="http://www.w3.org/2000/svg">
<path d="M18.6621 9.07607C18.6679 9.22598 18.6698 9.37582 18.6698 9.52572C18.6698 14.0705 15.4728 19.3171 9.62662 19.3171C7.83076 19.3171 6.16087 18.7447 4.75391 17.7704C5.00261 17.7976 5.2552 17.8181 5.51166 17.8181C7.00067 17.8181 8.3721 17.2661 9.45995 16.3394C8.06913 16.319 6.89473 15.3174 6.48969 13.9546C6.68413 13.9955 6.88438 14.016 7.08916 14.016C7.37791 14.016 7.65827 13.9752 7.92701 13.8934C6.47159 13.58 5.37535 12.19 5.37535 10.5207C5.37535 10.5002 5.37535 10.4934 5.37535 10.4797C5.80429 10.7318 6.29524 10.8885 6.81655 10.9089C5.96255 10.2889 5.40118 9.23278 5.40118 8.04038C5.40118 7.41352 5.55751 6.8207 5.8327 6.30967C7.39987 8.39466 9.7429 9.76424 12.3844 9.90733C12.3301 9.65522 12.3023 9.38955 12.3023 9.12382C12.3023 7.22279 13.7254 5.68286 15.4812 5.68286C16.3953 5.68286 17.2209 6.09856 17.8003 6.7663C18.5258 6.6164 19.2054 6.33024 19.8204 5.93505C19.582 6.73907 19.0787 7.41348 18.4211 7.83593C19.0645 7.75417 19.6782 7.57034 20.2474 7.29779C19.8204 7.98597 19.2829 8.5923 18.6621 9.07607Z" />
</svg>
